<svg width="207" height="209" viewBox="0 0 207 209" fill="none" xmlns="http://www.w3.org/2000/svg">
<path d="M42 58C42 58 42 77 42 148H33C16.4315 148 3 134.569 3 118V88C3 71.4315 16.4315 58 33 58H42ZM42 58V40.0139C42 19.9642 57.9581 3.55672 78 3V3H128V3C148.042 3.55672 164 19.9642 164 40.0139V58M164 58V148M164 58H174C190.569 58 204 71.4315 204 88V118C204 134.569 190.569 148 174 148H164M164 148V148C164 175.463 141.467 197.583 114.009 197.074L110 197" stroke="black" stroke-width="6"/>
<circle cx="103.5" cy="196.5" r="9.5" stroke="black" stroke-width="6"/>
</svg>
