<svg width="62" height="66" viewBox="0 0 62 66" fill="none" xmlns="http://www.w3.org/2000/svg">
<path d="M58.0991 26.6577H3.28828C2.18371 26.6577 1.28828 27.5531 1.28828 28.6577V63C1.28828 64.1046 2.18372 65 3.28829 65H58.0991C59.2037 65 60.0991 64.1046 60.0991 63V28.6577C60.0991 27.5531 59.2037 26.6577 58.0991 26.6577Z" stroke="black" stroke-width="2"/>
<path d="M43.3784 26.0811V18.792C43.3784 13.7626 42.977 8.30625 39.3144 4.85941C33.7483 -0.378959 24.7862 -0.770003 18.7615 6.71438C16.5847 9.41855 15.991 12.9954 15.991 16.4669V16.4669" stroke="black" stroke-width="2"/>
<path d="M1 57.5045H59.5225" stroke="black" stroke-width="2"/>
<rect x="25.3513" y="32.8468" width="9.81982" height="19.3333" rx="4.90991" stroke="black" stroke-width="2"/>
</svg>
