<svg width="36" height="65" viewBox="0 0 36 65" fill="none" xmlns="http://www.w3.org/2000/svg">
<path d="M26.2638 39.0435L27.7257 27.913V19.9665C27.7257 15.8678 26.9873 11.8026 25.546 7.96562V7.96562M26.2638 39.0435L34.1594 49.2464V62L24.3507 51.5652M26.2638 39.0435L24.3507 51.5652M24.3507 51.5652L23.2609 55.7391H13.058L11.7594 51.5652M11.7594 51.5652L1 62V49.2464L9.2087 39.0435M11.7594 51.5652L9.2087 39.0435M9.2087 39.0435L7.78366 27.913V19.9665C7.78366 15.8678 8.52202 11.8026 9.96337 7.96562V7.96562M17.9275 62V38.8116M9.96337 7.96562L13.8156 3.03831C15.8175 0.477785 19.6919 0.477781 21.6937 3.0383L25.546 7.96562M9.96337 7.96562H19.6097M25.546 7.96562H22.3924M12.6086 16.9889L12.8034 16.6619C14.9658 13.0327 20.0967 12.7027 22.7061 16.0251V16.0251C24.6001 18.4366 24.3781 21.8865 22.1907 24.0354L21.9191 24.3021C19.2659 26.9086 14.9008 26.4801 12.8051 23.4074V23.4074C11.4963 21.4884 11.4196 18.9844 12.6086 16.9889Z" stroke="black" stroke-width="2"/>
</svg>
